 <svg version="1.0" xmlns="http://www.w3.org/2000/svg" width="700.000000pt" height="700.000000pt" viewBox="0 0 700.000000 700.000000" preserveAspectRatio="xMidYMid meet">
<metadata>
Created by potrace 1.12, written by Peter Selinger 2001-2015
</metadata>
<g transform="translate(0.000000,700.000000) scale(0.100000,-0.100000)" fill="#000000" stroke="none">
<path d="M3285 6869 c-33 -5 -105 -13 -160 -18 -91 -9 -173 -22 -322 -50 -28
-5 -61 -14 -72 -20 -11 -6 -35 -11 -53 -11 -18 0 -42 -7 -52 -15 -11 -8 -33
-15 -48 -15 -16 0 -36 -4 -46 -9 -24 -12 -81 -31 -121 -41 -18 -5 -38 -13 -44
-19 -6 -6 -19 -11 -29 -11 -10 0 -41 -11 -70 -25 -28 -14 -59 -25 -69 -25 -9
0 -22 -7 -29 -15 -7 -8 -18 -15 -25 -15 -13 0 -229 -108 -280 -140 -16 -11
-44 -26 -62 -35 -18 -9 -37 -23 -44 -31 -6 -8 -20 -14 -30 -14 -11 0 -19 -5
-19 -10 0 -6 -10 -14 -22 -19 -13 -5 -48 -27 -78 -50 -30 -22 -79 -57 -107
-78 -29 -21 -65 -48 -80 -61 -16 -13 -58 -48 -95 -78 -90 -72 -262 -245 -350
-352 -40 -48 -75 -89 -79 -92 -3 -3 -45 -58 -93 -123 -80 -109 -163 -239 -211
-329 -11 -21 -23 -38 -27 -38 -5 0 -8 -9 -8 -19 0 -11 -4 -22 -9 -25 -13 -8
-51 -84 -51 -101 0 -8 -4 -15 -8 -15 -5 0 -16 -19 -26 -42 -9 -24 -23 -56 -30
-73 -34 -76 -45 -104 -61 -153 -10 -29 -21 -55 -26 -58 -5 -3 -9 -20 -9 -38 0
-19 -7 -39 -15 -46 -8 -7 -15 -21 -15 -32 0 -21 -26 -110 -41 -140 -5 -10 -9
-35 -9 -56 0 -21 -7 -47 -15 -58 -8 -10 -15 -36 -15 -56 0 -20 -5 -49 -11 -65
-13 -32 -26 -122 -39 -273 -4 -58 -14 -141 -20 -185 -23 -152 18 -736 59 -838
6 -16 11 -45 11 -66 0 -20 7 -46 15 -57 8 -10 15 -38 15 -61 0 -23 5 -45 10
-48 6 -3 10 -18 10 -33 1 -15 7 -38 15 -52 8 -14 14 -37 15 -51 0 -14 7 -34
15 -45 8 -10 15 -31 15 -46 0 -15 4 -29 9 -32 5 -3 16 -29 26 -58 9 -29 24
-69 32 -88 8 -19 21 -48 28 -65 30 -70 131 -271 142 -283 7 -7 13 -18 13 -24
0 -6 10 -25 23 -42 13 -17 27 -38 31 -46 11 -23 29 -52 54 -87 12 -17 22 -33
22 -36 0 -15 133 -194 208 -279 23 -27 42 -52 42 -56 0 -11 249 -262 315 -317
33 -27 85 -72 115 -99 30 -26 70 -59 90 -72 19 -13 64 -44 100 -70 61 -44 247
-162 280 -177 8 -4 38 -21 65 -37 28 -17 57 -33 65 -36 20 -8 200 -92 222
-105 10 -5 25 -9 34 -9 9 0 29 -7 45 -15 16 -8 42 -22 58 -30 16 -8 40 -15 53
-15 13 0 28 -4 33 -8 6 -4 37 -16 70 -26 33 -9 74 -22 90 -28 17 -6 50 -13 75
-17 25 -4 52 -11 60 -16 15 -9 52 -16 180 -35 36 -5 76 -14 90 -19 14 -5 72
-12 130 -14 58 -3 118 -10 133 -16 43 -17 436 -14 517 4 36 8 100 14 143 15
43 0 87 5 97 10 11 6 50 15 87 20 139 21 169 26 190 38 12 7 35 12 52 12 17 0
45 6 63 14 18 8 60 22 93 31 33 9 68 20 77 26 10 5 27 9 39 9 11 0 33 6 47 14
15 8 63 29 106 46 44 18 87 36 95 40 9 5 36 18 61 30 25 11 52 25 60 30 8 4
44 22 80 40 36 17 81 41 100 52 19 12 52 31 72 42 76 43 164 100 196 128 18
15 36 28 40 28 5 0 17 8 28 18 10 10 48 40 84 67 36 27 85 68 110 91 25 23 74
68 110 100 120 108 225 222 325 354 27 36 52 67 55 70 12 10 100 130 100 137
0 3 11 21 25 39 14 18 25 36 25 39 0 3 11 21 24 38 13 18 27 42 31 55 3 12 11
22 16 22 5 0 9 5 9 11 0 7 18 40 40 75 22 35 40 70 40 78 0 7 7 19 15 26 8 7
15 16 15 21 0 5 13 37 29 72 26 56 42 92 73 167 5 14 16 38 24 53 8 16 14 37
14 47 0 10 4 21 9 24 5 3 12 22 16 42 3 20 10 44 14 53 16 33 41 119 41 143 0
13 6 32 14 43 7 11 16 38 19 60 14 101 28 168 37 185 5 10 10 43 10 73 0 29 8
78 17 108 14 46 16 108 17 429 0 326 -3 381 -17 423 -9 26 -17 70 -17 97 0 27
-5 61 -10 76 -6 15 -15 55 -21 88 -5 34 -13 82 -18 109 -4 26 -13 53 -19 59
-7 7 -12 24 -12 40 0 15 -6 42 -14 60 -8 18 -19 53 -26 78 -6 25 -18 58 -26
73 -8 16 -14 35 -14 42 0 8 -7 31 -16 52 -9 21 -21 49 -26 63 -21 54 -36 87
-66 150 -18 36 -32 70 -32 76 0 6 -7 17 -15 24 -8 7 -15 19 -15 27 0 8 -16 39
-36 70 -19 31 -40 65 -45 77 -10 24 -15 32 -81 134 -27 40 -48 74 -48 77 0 5
-90 127 -100 135 -3 3 -19 23 -35 45 -122 165 -424 469 -563 565 -20 14 -47
35 -60 47 -42 38 -311 217 -367 244 -11 5 -27 13 -35 18 -39 23 -102 55 -170
87 -81 38 -90 42 -165 74 -27 11 -58 25 -67 30 -10 6 -26 10 -35 10 -10 0 -27
7 -37 15 -11 8 -31 15 -45 15 -14 0 -35 7 -45 15 -11 8 -30 15 -42 15 -13 0
-26 5 -29 10 -3 6 -23 10 -44 10 -22 0 -44 6 -51 15 -7 8 -28 15 -47 15 -19 0
-44 5 -55 11 -11 6 -44 15 -72 20 -28 4 -89 15 -136 24 -47 9 -130 20 -185 25
-55 5 -129 13 -165 19 -76 13 -377 12 -465 0z m510 -100 c209 -20 251 -26 272
-37 12 -7 38 -12 58 -12 20 0 45 -5 56 -11 19 -10 65 -20 169 -38 25 -4 55
-13 67 -19 12 -7 35 -12 50 -12 16 0 38 -7 49 -15 10 -8 29 -15 40 -15 12 0
35 -7 50 -15 16 -8 37 -15 47 -15 17 0 24 -3 85 -33 19 -9 42 -17 52 -17 9 0
23 -7 30 -15 7 -8 20 -15 29 -15 10 0 67 -25 127 -56 60 -31 123 -64 139 -72
17 -8 32 -18 35 -22 3 -3 34 -22 70 -42 36 -20 75 -46 87 -57 12 -12 26 -21
30 -21 5 0 24 -13 43 -30 19 -16 39 -29 44 -30 6 0 31 -18 57 -40 26 -22 52
-40 56 -40 5 0 24 -15 42 -34 18 -19 57 -51 86 -72 68 -49 289 -275 373 -380
81 -102 188 -248 203 -276 7 -12 22 -33 35 -47 13 -14 24 -30 24 -35 0 -5 11
-24 25 -42 14 -18 25 -37 25 -43 0 -5 6 -16 13 -23 18 -18 157 -294 157 -311
0 -8 7 -20 15 -27 8 -7 15 -21 15 -31 0 -11 4 -27 9 -37 24 -47 41 -95 41
-115 0 -12 7 -31 15 -41 8 -11 15 -32 15 -46 0 -15 3 -30 7 -34 10 -10 33 -91
42 -151 5 -27 13 -63 19 -80 39 -111 78 -347 93 -550 10 -146 3 -543 -11 -560
-4 -5 -10 -48 -13 -94 -3 -46 -10 -88 -16 -94 -6 -6 -11 -28 -11 -48 0 -20 -7
-53 -15 -72 -8 -20 -15 -51 -15 -70 0 -18 -5 -38 -11 -44 -6 -6 -14 -35 -19
-64 -4 -30 -15 -79 -25 -109 -9 -30 -19 -68 -22 -85 -3 -16 -12 -39 -19 -50
-8 -11 -14 -31 -14 -45 0 -14 -5 -31 -10 -36 -6 -6 -12 -20 -14 -31 -3 -12
-16 -46 -30 -75 -14 -30 -26 -58 -26 -61 0 -10 -99 -209 -130 -262 -17 -27
-33 -57 -37 -65 -14 -30 -133 -207 -148 -220 -8 -7 -15 -17 -15 -23 0 -5 -17
-30 -37 -56 -21 -25 -42 -53 -48 -62 -19 -32 -146 -184 -205 -244 -152 -157
-220 -217 -368 -327 -20 -15 -44 -34 -52 -42 -9 -8 -27 -21 -42 -28 -14 -8
-41 -26 -59 -42 -32 -26 -198 -136 -205 -136 -2 0 -32 -17 -66 -38 -74 -45
-152 -82 -280 -136 -155 -65 -207 -84 -258 -96 -19 -4 -48 -13 -65 -18 -65
-23 -138 -42 -161 -42 -12 0 -26 -4 -29 -10 -3 -5 -22 -10 -41 -10 -19 0 -51
-7 -71 -15 -19 -8 -48 -15 -63 -15 -15 0 -47 -7 -70 -15 -23 -8 -66 -15 -94
-15 -29 0 -58 -6 -64 -13 -18 -17 -628 -23 -727 -7 -38 6 -99 15 -135 20 -36
4 -81 13 -100 19 -19 6 -49 11 -65 11 -17 0 -36 5 -41 10 -6 6 -34 15 -62 20
-29 6 -74 14 -101 19 -27 5 -59 14 -70 20 -11 6 -33 11 -48 11 -16 0 -38 7
-49 15 -10 8 -29 15 -40 15 -12 0 -35 7 -50 15 -16 8 -37 15 -47 15 -9 0 -25
4 -35 9 -28 13 -84 37 -127 54 -22 8 -47 18 -55 21 -8 3 -22 10 -30 15 -8 6
-34 18 -57 27 -24 10 -43 21 -43 26 0 4 -5 8 -11 8 -10 0 -119 58 -198 105
-50 30 -129 86 -140 99 -8 9 -18 16 -23 16 -12 0 -126 82 -182 130 -23 20 -59
49 -81 65 -58 42 -333 319 -391 393 -47 61 -81 107 -152 203 -17 24 -42 57
-54 73 -13 16 -27 37 -33 47 -5 10 -36 58 -67 108 -31 50 -59 100 -63 111 -3
11 -11 20 -16 20 -5 0 -9 8 -9 19 0 10 -7 24 -15 31 -8 7 -15 20 -15 30 0 10
-7 23 -15 30 -8 7 -15 18 -15 26 0 7 -11 34 -25 60 -14 26 -25 57 -25 69 0 13
-7 28 -15 35 -8 7 -15 22 -15 34 0 11 -7 30 -15 40 -8 11 -15 30 -15 42 0 13
-4 26 -10 29 -5 3 -10 19 -10 34 0 15 -7 36 -15 47 -8 10 -15 33 -15 49 0 17
-7 41 -15 55 -8 14 -14 39 -15 56 0 18 -7 45 -15 60 -8 16 -15 46 -15 66 0 20
-5 40 -10 43 -6 3 -10 24 -10 46 0 22 -7 56 -15 76 -8 19 -15 55 -15 78 0 23
-7 62 -15 85 -12 35 -15 107 -15 399 0 221 5 371 11 396 6 22 14 65 19 95 4
30 13 71 19 90 6 19 11 49 11 67 0 17 5 35 10 38 6 3 10 21 10 39 0 19 7 58
16 87 8 30 22 79 31 109 8 30 19 69 25 85 5 17 12 41 15 55 5 27 11 43 37 103
9 21 16 46 16 56 0 10 7 24 15 31 8 7 15 21 15 31 0 11 4 27 10 37 5 9 30 62
57 117 40 85 95 187 133 245 6 8 14 24 19 35 5 11 32 51 61 89 29 39 63 86 76
105 27 40 85 118 153 208 57 74 376 393 393 393 7 0 31 17 53 38 40 38 91 76
178 133 26 17 47 35 47 40 0 5 5 9 10 9 6 0 36 18 68 39 31 21 75 49 97 61 22
12 63 35 90 51 77 45 253 129 345 164 25 9 53 21 62 26 10 5 28 9 41 9 13 0
28 5 34 11 6 6 29 15 50 19 21 5 52 13 68 18 90 31 133 42 157 42 15 0 29 4
32 9 3 4 31 11 62 14 31 3 62 11 67 16 6 6 32 11 57 11 25 0 52 6 58 13 7 6
50 15 95 20 45 4 114 11 152 16 95 11 459 11 570 0z"></path>
<path d="M3380 6628 c-44 -34 -89 -99 -90 -131 0 -37 55 -121 88 -131 12 -4
22 -12 22 -17 0 -6 47 -9 118 -7 l117 3 3 88 3 87 -50 0 c-32 0 -55 -6 -65
-16 -19 -19 -12 -34 14 -34 13 0 22 -9 26 -25 10 -38 -1 -52 -45 -60 -51 -8
-103 15 -131 60 -29 47 -25 84 13 128 31 35 36 37 92 37 52 0 62 -3 82 -27 29
-34 46 -21 41 33 l-3 39 -96 3 c-96 3 -97 2 -139 -30z"></path>
<path d="M2883 6600 c-29 -12 -30 -38 -2 -42 28 -4 70 -121 51 -140 -13 -13
-11 -14 -184 81 -65 35 -84 41 -113 35 -45 -8 -54 -22 -26 -43 29 -22 51 -67
51 -105 0 -17 7 -44 15 -60 19 -36 19 -60 1 -76 -22 -17 -8 -43 18 -35 11 4
39 10 61 13 31 6 40 11 40 27 0 13 -8 21 -23 23 -13 2 -25 11 -28 20 -3 9 -12
31 -21 48 -33 68 7 93 76 50 22 -14 44 -26 49 -26 4 0 39 -20 76 -45 38 -24
72 -42 77 -39 12 7 11 81 -1 89 -5 3 -10 25 -10 48 0 23 -7 55 -15 71 -17 33
-20 72 -5 81 6 3 10 13 10 21 0 16 -60 19 -97 4z"></path>
<path d="M2223 6382 c-59 -28 -72 -58 -27 -64 26 -3 34 -14 69 -93 9 -22 23
-51 30 -65 11 -22 11 -30 -3 -53 -24 -38 -6 -54 39 -34 19 9 44 18 57 22 12 3
27 15 32 26 10 17 7 20 -20 26 -18 3 -34 13 -37 22 -5 18 -31 75 -46 105 -22
45 -26 78 -12 100 29 43 -4 46 -82 8z"></path>
<path d="M4780 6339 c-19 -10 -47 -33 -62 -51 -24 -27 -28 -41 -28 -93 0 -56
3 -65 35 -102 19 -23 56 -51 83 -63 26 -12 61 -28 79 -37 38 -18 49 -13 69 35
8 20 24 47 36 59 23 25 18 53 -9 53 -10 0 -27 7 -37 15 -38 29 -87 11 -57 -20
9 -10 14 -38 12 -62 -1 -8 -15 -13 -34 -13 -25 0 -43 9 -70 37 -33 33 -37 42
-37 89 0 46 4 55 31 78 41 35 73 41 121 25 43 -14 78 -50 78 -80 0 -11 6 -19
13 -19 37 0 51 64 19 90 -33 29 -71 50 -89 50 -10 0 -27 7 -37 15 -26 20 -72
17 -116 -6z"></path>
<path d="M3285 6268 c-16 -5 -70 -13 -120 -18 -110 -10 -224 -29 -248 -42 -10
-5 -41 -12 -68 -15 -27 -3 -52 -10 -55 -14 -3 -5 -17 -9 -32 -9 -15 -1 -38 -7
-52 -15 -14 -8 -36 -15 -50 -15 -14 0 -34 -7 -44 -15 -11 -8 -28 -15 -38 -15
-10 0 -26 -4 -36 -9 -9 -5 -37 -17 -62 -26 -44 -18 -246 -116 -338 -165 -26
-14 -94 -56 -151 -95 -57 -38 -113 -77 -126 -85 -112 -75 -376 -329 -485 -465
-35 -44 -68 -84 -73 -90 -28 -33 -136 -192 -157 -232 -14 -27 -34 -61 -46 -78
-30 -44 -164 -325 -164 -345 0 -9 -24 -68 -41 -102 -5 -10 -9 -26 -9 -35 0
-10 -7 -31 -15 -47 -8 -15 -15 -38 -15 -50 -1 -11 -7 -32 -15 -46 -8 -14 -14
-40 -15 -58 0 -18 -5 -43 -11 -54 -11 -21 -20 -71 -39 -218 -6 -41 -14 -97
-20 -123 -13 -64 -13 -486 1 -562 10 -56 17 -107 37 -265 4 -36 13 -75 20 -87
7 -12 12 -34 12 -48 0 -15 6 -41 14 -58 8 -18 16 -43 19 -57 6 -28 25 -86 38
-112 5 -10 9 -26 9 -36 0 -10 7 -27 15 -38 8 -10 15 -27 15 -36 0 -9 6 -29 14
-45 15 -29 89 -187 100 -213 3 -8 20 -37 36 -65 17 -27 35 -59 40 -70 6 -11
24 -40 40 -65 16 -25 34 -54 39 -65 5 -11 19 -31 32 -45 13 -14 33 -39 43 -55
124 -190 506 -556 701 -672 11 -6 63 -38 115 -70 158 -98 432 -222 559 -253
18 -5 38 -13 44 -19 6 -6 23 -11 38 -11 15 0 40 -7 55 -15 16 -8 46 -15 66
-15 20 0 40 -4 43 -10 3 -5 24 -10 45 -10 21 0 51 -5 67 -11 15 -6 64 -15 108
-20 44 -5 112 -13 150 -18 94 -14 426 -14 500 0 33 6 94 15 135 19 103 12 202
30 222 41 10 5 28 9 40 9 21 0 62 11 153 42 17 5 44 13 60 18 44 12 167 58
187 70 10 5 24 10 32 10 7 0 19 7 26 15 7 8 22 15 34 15 12 0 26 4 32 9 5 5
54 32 109 61 118 60 113 58 236 137 53 34 102 69 109 78 7 8 17 15 22 15 17 0
233 188 330 286 87 90 200 222 237 277 8 12 24 33 36 47 40 47 164 253 215
360 18 36 36 72 41 80 5 8 12 22 15 30 3 8 13 31 21 50 8 19 19 46 25 60 5 14
16 38 24 53 8 16 14 37 14 47 0 10 6 31 14 47 17 32 46 128 46 149 0 8 4 22 9
32 6 9 13 38 16 64 3 26 10 50 16 53 5 4 9 26 9 50 0 24 5 56 11 72 6 15 15
73 20 128 4 55 13 123 18 150 13 64 12 303 0 375 -5 30 -13 100 -18 155 -4 55
-13 113 -19 128 -7 16 -12 44 -12 63 0 19 -7 51 -15 71 -8 19 -15 50 -15 69 0
18 -4 36 -10 39 -5 3 -10 18 -10 33 0 15 -7 40 -15 56 -8 15 -15 38 -15 50 0
11 -7 30 -15 40 -8 11 -15 30 -15 42 0 13 -4 25 -9 28 -5 4 -17 32 -27 64 -16
52 -33 92 -55 132 -5 8 -12 22 -15 30 -30 72 -39 90 -46 90 -4 0 -8 8 -8 19 0
10 -7 24 -15 31 -8 7 -15 17 -15 22 0 5 -17 35 -37 66 -48 73 -60 93 -70 112
-4 8 -11 20 -15 25 -4 6 -36 48 -70 95 -34 47 -64 87 -68 90 -3 3 -38 43 -77
90 -76 92 -208 222 -288 285 -27 22 -52 43 -55 46 -10 11 -169 129 -174 129
-3 0 -33 20 -68 44 -94 65 -338 196 -365 196 -6 0 -16 7 -23 15 -7 8 -21 15
-30 15 -10 0 -31 6 -47 14 -41 20 -123 51 -178 66 -16 5 -43 13 -60 18 -102
34 -131 41 -256 62 -31 5 -68 14 -83 20 -15 5 -55 10 -89 10 -34 0 -87 7 -117
15 -64 17 -435 20 -485 3z m540 -647 l120 -6 2 -65 c1 -36 7 -129 14 -208 6
-78 9 -146 5 -149 -12 -12 -46 31 -46 59 0 16 -7 45 -15 65 -8 19 -15 48 -15
64 0 16 -8 44 -17 63 -14 30 -23 36 -60 42 -24 3 -46 10 -49 15 -3 5 -20 9
-38 9 -19 0 -53 7 -76 15 -58 21 -229 20 -295 -1 -27 -9 -66 -20 -85 -26 -93
-27 -280 -171 -280 -215 0 -7 -4 -13 -8 -13 -5 0 -18 -19 -31 -42 -12 -24 -25
-50 -30 -58 -30 -58 -41 -84 -41 -101 0 -11 -7 -31 -16 -44 -9 -14 -13 -32
-10 -40 3 -9 -1 -32 -9 -52 -18 -42 -22 -367 -5 -378 6 -3 10 -21 10 -38 0
-18 7 -45 15 -61 8 -15 15 -36 15 -45 1 -9 12 -34 25 -56 13 -22 33 -58 44
-80 28 -55 116 -157 173 -199 118 -88 237 -129 373 -128 62 0 208 17 222 25 6
4 16 26 22 50 17 59 11 391 -7 409 -18 18 -99 37 -158 38 -55 0 -91 19 -81 42
6 17 57 17 292 4 61 -3 168 -8 240 -12 71 -3 132 -8 134 -10 3 -3 0 -13 -5
-22 -8 -11 -32 -20 -75 -25 -35 -4 -65 -9 -66 -11 -15 -14 -33 -182 -33 -300
0 -99 -4 -147 -12 -157 -16 -19 -64 -49 -79 -49 -12 0 -65 -22 -112 -46 -16
-8 -38 -14 -48 -14 -11 0 -30 -5 -42 -12 -42 -23 -123 -31 -307 -31 -224 0
-228 1 -357 60 -107 50 -283 198 -283 239 0 6 -6 17 -14 23 -8 7 -21 26 -30
44 -9 18 -20 39 -25 47 -26 47 -53 124 -73 206 -25 104 -9 477 22 508 6 6 10
20 10 33 0 12 7 39 16 60 9 21 24 54 32 73 14 32 25 56 55 113 40 77 221 277
251 277 5 0 17 6 25 14 28 25 133 76 155 76 12 0 28 6 34 13 25 24 265 27 627
8z m-1389 -206 c6 -22 14 -100 17 -173 6 -133 6 -133 -16 -130 -17 2 -23 11
-25 38 -2 19 -8 40 -12 45 -9 10 -26 70 -37 128 -5 23 -10 27 -42 27 -20 0
-49 -7 -65 -15 -15 -8 -41 -15 -57 -15 -16 0 -29 -4 -29 -10 0 -5 -12 -12 -27
-16 -50 -10 -200 -81 -243 -114 l-25 -19 -3 -223 c-2 -123 -1 -251 3 -285 l7
-63 44 0 c25 0 54 5 65 11 20 10 86 25 161 36 21 3 42 11 49 19 6 8 24 14 40
14 35 0 59 32 59 79 0 48 31 141 47 141 10 0 13 -36 15 -167 1 -93 2 -204 2
-248 1 -64 -2 -80 -14 -80 -9 0 -17 13 -20 35 -4 19 -12 45 -19 58 -7 13 -10
29 -8 37 11 26 -22 55 -62 55 -20 0 -41 -4 -47 -9 -5 -6 -34 -14 -64 -20 -105
-19 -142 -29 -153 -40 -6 -6 -23 -11 -38 -11 -15 0 -32 -7 -40 -16 -16 -19
-17 -149 -4 -429 l10 -200 40 -7 c51 -9 374 2 381 14 3 4 12 8 21 8 27 0 63
41 63 72 0 16 7 45 15 65 8 19 15 46 15 60 0 32 28 85 43 80 18 -6 15 -284 -4
-333 -11 -30 -119 -54 -241 -54 -53 0 -109 -5 -124 -10 -26 -10 -156 -25 -349
-39 -49 -3 -100 -12 -112 -19 -12 -6 -48 -12 -80 -12 -32 -1 -75 -7 -96 -14
-21 -8 -40 -10 -43 -5 -9 16 39 48 72 49 16 0 39 7 50 15 10 8 31 15 45 15 15
0 31 6 37 13 25 31 34 225 28 637 -4 331 -17 671 -25 688 0 1 -15 2 -32 2 -27
0 -78 -18 -147 -52 -16 -8 -26 -8 -33 -1 -14 14 27 42 161 111 41 21 107 54
145 74 65 34 164 79 210 97 11 5 37 16 58 25 21 9 46 16 56 16 10 0 24 7 31
15 7 8 23 15 35 15 13 0 36 6 52 14 55 28 178 64 213 62 31 -1 35 -5 46 -41z
m2454 -20 c14 -8 40 -14 57 -15 18 0 56 -11 85 -24 29 -13 60 -27 68 -30 8 -3
22 -10 30 -15 8 -5 22 -12 30 -15 8 -3 22 -10 30 -15 8 -4 31 -17 50 -27 19
-10 62 -33 95 -51 33 -18 67 -35 75 -39 8 -3 22 -9 30 -14 8 -5 33 -19 55 -30
72 -39 71 -38 79 -183 4 -72 8 -143 9 -156 1 -13 -2 -26 -8 -27 -15 -5 -45 53
-45 86 0 15 -7 44 -15 63 -8 20 -15 47 -15 60 0 13 -10 33 -22 44 -57 53 -252
172 -338 207 -8 3 -22 10 -30 15 -32 19 -109 34 -192 38 -80 4 -91 2 -147 -26
-34 -16 -77 -42 -96 -57 -36 -27 -125 -163 -125 -190 0 -8 -5 -25 -12 -37 -22
-40 -31 -120 -35 -306 -2 -120 0 -188 7 -195 5 -5 10 -26 10 -46 0 -19 7 -48
15 -64 8 -15 15 -36 15 -45 0 -9 7 -25 15 -35 8 -11 15 -26 15 -33 0 -48 177
-267 250 -308 57 -32 148 -75 159 -75 6 0 23 -8 38 -17 38 -25 343 -25 371 0
10 9 26 17 34 17 9 0 21 7 28 15 7 8 18 15 24 15 7 0 23 11 36 25 47 50 64 16
22 -46 -36 -54 -78 -127 -92 -156 -11 -26 -48 -31 -68 -10 -9 8 -65 14 -165
19 -192 9 -306 21 -334 36 -12 7 -35 12 -51 12 -16 0 -35 7 -42 15 -7 8 -20
15 -29 16 -17 0 -99 45 -168 90 -92 62 -190 182 -250 309 -62 131 -73 158 -73
189 0 15 -7 42 -16 60 -13 26 -15 64 -12 226 2 138 7 198 16 207 6 6 12 29 12
49 0 21 4 40 9 44 5 3 13 19 16 36 11 48 70 156 110 200 19 22 35 43 35 48 0
10 110 88 159 113 20 10 44 18 56 18 11 1 31 7 45 15 15 9 53 14 95 14 42 0
80 -5 95 -14z m-1437 -1952 c-4 -24 -11 -33 -24 -33 -23 0 -24 8 -3 49 19 39
34 29 27 -16z m54 13 c-4 -9 -11 -16 -17 -16 -11 0 -14 33 -3 44 11 10 26 -11
20 -28z m109 17 c3 -10 10 -26 15 -35 13 -25 12 -28 -16 -28 -17 0 -25 6 -25
18 0 9 -3 27 -6 40 -5 16 -2 22 10 22 9 0 19 -8 22 -17z m-48 -15 c-6 -18 -28
-21 -28 -4 0 9 7 16 16 16 9 0 14 -5 12 -12z m-173 -8 c3 -5 1 -10 -4 -10 -6
0 -11 5 -11 10 0 6 2 10 4 10 3 0 8 -4 11 -10z m275 -5 c0 -8 -7 -15 -15 -15
-16 0 -20 12 -8 23 11 12 23 8 23 -8z m60 5 c0 -5 9 -10 20 -10 11 0 23 -7 26
-15 4 -8 16 -15 29 -15 21 0 35 -17 35 -41 0 -18 -29 -8 -48 16 -11 14 -27 25
-36 25 -17 0 -56 29 -56 42 0 5 7 8 15 8 8 0 15 -4 15 -10z m-415 -25 c0 -5
-10 -11 -22 -13 -12 -2 -27 -10 -33 -18 -16 -18 -30 -18 -30 0 0 8 10 22 23
31 23 17 62 17 62 0z m550 -105 c0 -7 -6 -15 -12 -17 -8 -3 -13 4 -13 17 0 13
5 20 13 18 6 -3 12 -11 12 -18z m-685 -61 c0 -28 -4 -39 -12 -37 -24 8 -22 78
2 78 5 0 10 -18 10 -41z m710 7 c0 -8 -4 -17 -9 -20 -10 -7 -23 19 -14 28 11
11 23 6 23 -8z m-630 -35 c0 -6 -4 -13 -10 -16 -5 -3 -10 1 -10 9 0 9 5 16 10
16 6 0 10 -4 10 -9z m105 -1 c3 -5 1 -10 -4 -10 -6 0 -11 5 -11 10 0 6 2 10 4
10 3 0 8 -4 11 -10z m115 0 c0 -5 -4 -10 -10 -10 -5 0 -10 5 -10 10 0 6 5 10
10 10 6 0 10 -4 10 -10z m110 0 c0 -5 -4 -10 -10 -10 -5 0 -10 5 -10 10 0 6 5
10 10 10 6 0 10 -4 10 -10z m108 -1 c-2 -6 -8 -10 -13 -10 -5 0 -11 4 -13 10
-2 6 4 11 13 11 9 0 15 -5 13 -11z m112 -4 c0 -8 -7 -15 -15 -15 -8 0 -15 7
-15 15 0 8 7 15 15 15 8 0 15 -7 15 -15z m-602 -37 c17 -17 15 -28 -7 -28 -24
0 -34 -25 -21 -50 14 -26 13 -30 -9 -30 -11 0 -21 6 -24 13 -3 9 -9 9 -26 -1
-13 -7 -35 -10 -54 -7 -29 6 -32 10 -33 43 -1 41 14 62 45 62 26 0 27 -8 4
-26 -16 -12 -16 -15 -3 -24 24 -16 37 -12 71 25 37 39 40 40 57 23z m140 -56
c-1 -47 -11 -60 -33 -42 -11 9 -19 10 -28 1 -19 -15 -27 -4 -27 38 0 50 16 74
25 38 8 -30 23 -36 30 -12 16 51 16 50 25 35 5 -8 9 -34 8 -58z m102 54 c0 -8
7 -16 15 -20 10 -3 15 -19 15 -46 l0 -40 -43 0 c-69 0 -86 35 -45 90 23 31 58
41 58 16z m144 -16 c32 -35 30 -74 -5 -85 -26 -9 -35 0 -20 19 16 19 5 56 -15
56 -12 0 -15 -9 -12 -37 2 -30 -1 -38 -15 -41 -14 -3 -17 4 -17 33 0 38 24 85
44 85 6 0 24 -14 40 -30z m266 17 c0 -7 8 -17 18 -24 25 -15 18 -83 -8 -83
-15 0 -17 6 -13 40 5 33 3 40 -11 40 -23 0 -32 -28 -17 -52 16 -26 7 -34 -24
-20 -33 15 -32 46 3 82 29 31 52 38 52 17z m135 -6 c3 -5 -5 -11 -17 -13 -29
-4 -35 -28 -9 -35 24 -6 28 -23 6 -23 -9 0 -18 -7 -21 -15 -4 -8 -12 -15 -20
-15 -10 0 -14 14 -14 48 0 27 3 52 7 55 10 10 61 8 68 -2z m-320 -33 c11 -55
10 -63 -10 -63 -15 0 -21 8 -23 28 -6 52 22 82 33 35z m-445 -58 c0 -5 -7 -10
-15 -10 -8 0 -15 5 -15 10 0 6 7 10 15 10 8 0 15 -4 15 -10z m421 -32 c164 0
209 -3 209 -13 0 -7 -11 -20 -25 -29 -28 -18 -33 -57 -11 -75 7 -6 11 -21 9
-34 -8 -43 15 -50 129 -37 208 23 233 27 255 38 12 7 33 12 46 12 26 0 84 20
130 46 34 19 39 15 61 -38 10 -24 22 -51 27 -60 52 -102 88 -488 54 -599 -8
-29 -15 -70 -15 -90 0 -21 -4 -41 -10 -44 -5 -3 -10 -16 -10 -28 0 -22 -32
-121 -49 -155 -5 -9 -30 -60 -56 -112 -71 -145 -74 -150 -198 -308 -87 -109
-181 -206 -277 -285 -41 -34 -77 -64 -80 -68 -3 -4 -34 -28 -70 -55 -36 -26
-67 -50 -70 -53 -3 -4 -45 -33 -93 -65 l-88 -59 -22 20 c-12 11 -53 41 -92 67
-133 89 -328 247 -424 346 -172 175 -315 387 -396 585 -9 22 -20 48 -25 57 -6
10 -10 28 -10 40 -1 13 -7 34 -15 48 -8 14 -14 43 -15 66 0 22 -6 46 -12 53
-10 9 -13 69 -13 231 0 162 3 222 13 232 6 6 12 26 12 42 0 33 24 114 46 158
8 14 14 33 14 40 0 8 9 23 21 33 19 18 22 18 52 3 57 -30 109 -48 136 -48 15
0 36 -7 47 -15 11 -8 41 -15 70 -15 28 0 64 -4 80 -10 16 -5 85 -12 154 -15
69 -3 148 -8 175 -11 28 -3 139 -5 248 -5 165 0 202 2 223 16 28 18 34 72 9
81 -20 8 -19 41 3 53 38 23 -50 37 -101 16 -9 -4 -23 -3 -30 3 -6 5 -25 8 -42
5 -36 -6 -51 -5 -89 1 -15 2 -39 0 -52 -6 -18 -9 -28 -8 -36 0 -14 14 -57 16
-76 3 -7 -4 -36 -4 -64 1 -41 8 -53 6 -68 -7 -17 -16 -20 -16 -44 2 -14 10
-24 23 -22 28 1 6 52 11 120 11 64 1 120 4 123 8 3 3 10 3 15 0 5 -4 104 -6
219 -6z m-121 -98 c0 -5 -4 -10 -10 -10 -5 0 -10 5 -10 10 0 6 5 10 10 10 6 0
10 -4 10 -10z m110 0 c0 -5 -4 -10 -10 -10 -5 0 -10 5 -10 10 0 6 5 10 10 10
6 0 10 -4 10 -10z m110 0 c0 -5 -4 -10 -10 -10 -5 0 -10 5 -10 10 0 6 5 10 10
10 6 0 10 -4 10 -10z m-538 -45 c-5 -29 -32 -34 -32 -7 0 22 8 32 25 32 8 0
10 -10 7 -25z"></path>
<path d="M3185 5561 c-7 -12 12 -24 25 -16 11 7 4 25 -10 25 -5 0 -11 -4 -15
-9z"></path>
<path d="M3104 5525 c-4 -8 -15 -15 -25 -15 -10 0 -19 -4 -19 -10 0 -5 -6 -10
-13 -10 -7 0 -26 -13 -43 -28 -16 -15 -44 -38 -61 -51 -18 -12 -56 -55 -85
-94 -64 -87 -69 -96 -106 -172 -50 -104 -62 -135 -62 -156 0 -11 -5 -30 -12
-42 -19 -36 -31 -145 -31 -282 1 -171 12 -240 59 -350 7 -16 15 -37 18 -45 28
-72 130 -195 210 -253 84 -61 106 -75 126 -83 8 -3 24 -10 35 -16 11 -7 36
-15 55 -19 19 -4 51 -12 70 -16 40 -10 73 -6 65 8 -4 5 -19 9 -35 9 -16 0 -41
6 -57 14 -15 7 -46 22 -68 32 -127 59 -239 161 -312 283 -24 39 -43 77 -43 84
0 6 -7 21 -15 31 -8 11 -15 31 -15 44 0 13 -5 33 -12 45 -16 30 -28 111 -35
237 -5 99 4 192 28 285 6 22 14 56 18 75 4 19 12 44 18 55 5 11 25 52 43 90
19 39 36 72 40 75 3 3 16 21 27 40 26 42 155 170 171 170 7 0 12 4 12 10 0 8
40 30 83 44 9 3 17 10 17 16 0 16 -40 12 -46 -5z"></path>
<path d="M3814 4436 c-10 -27 -10 -419 1 -422 6 -2 17 1 25 6 12 7 15 45 15
217 0 190 -1 208 -18 211 -9 2 -20 -3 -23 -12z"></path>
<path d="M1715 5140 c-10 -16 -6 -788 5 -1025 6 -121 11 -247 13 -280 2 -54 4
-60 25 -63 21 -3 22 -1 22 80 0 46 -5 126 -10 178 -5 52 -10 239 -11 415 -3
524 -9 705 -25 705 -7 0 -16 -4 -19 -10z"></path>
<path d="M4736 5341 c-8 -12 26 -20 59 -13 19 3 23 7 13 13 -17 11 -65 11 -72
0z"></path>
<path d="M4670 5323 c-14 -3 -32 -10 -40 -17 -8 -6 -28 -18 -43 -26 -50 -25
-165 -156 -197 -224 -17 -34 -30 -69 -30 -77 0 -8 -5 -20 -12 -27 -6 -6 -15
-30 -19 -54 -4 -24 -12 -61 -18 -83 -16 -61 -13 -312 4 -360 8 -22 15 -54 15
-71 0 -17 7 -37 15 -44 8 -7 15 -25 15 -40 0 -15 7 -33 15 -40 8 -7 15 -19 15
-27 0 -21 109 -181 160 -233 25 -26 65 -60 90 -76 25 -16 47 -32 50 -35 3 -4
25 -16 50 -28 25 -12 53 -27 62 -33 13 -10 20 -10 29 -1 9 9 6 13 -15 19 -14
3 -26 10 -26 15 0 5 -7 9 -15 9 -23 0 -105 60 -167 122 -65 65 -115 136 -153
218 -9 19 -23 48 -31 63 -8 16 -14 38 -14 50 -1 12 -7 33 -15 47 -8 14 -14 40
-15 58 0 18 -5 43 -12 55 -14 27 -13 306 2 321 5 5 10 30 10 55 0 26 7 55 15
65 8 11 15 30 15 42 0 12 7 27 15 34 8 7 15 18 15 25 0 52 128 217 187 241 17
8 34 18 38 24 3 5 15 10 26 10 10 0 19 7 19 15 0 8 -3 14 -7 14 -5 -1 -19 -4
-33 -6z"></path>
<path d="M4875 3810 c-3 -5 3 -10 15 -10 12 0 18 5 15 10 -3 6 -10 10 -15 10
-5 0 -12 -4 -15 -10z"></path>
<path d="M4980 3780 c0 -5 5 -10 10 -10 6 0 10 5 10 10 0 6 -4 10 -10 10 -5 0
-10 -4 -10 -10z"></path>
<path d="M3407 3140 c-5 -21 16 -45 33 -35 5 3 10 17 10 31 0 30 -35 34 -43 4z"></path>
<path d="M2655 2793 c-9 -21 -23 -53 -31 -71 -8 -18 -14 -44 -14 -58 0 -14 -5
-34 -11 -46 -6 -11 -9 -22 -6 -24 3 -3 132 -5 288 -5 156 0 457 0 669 -1 212
0 412 0 445 1 88 1 108 1 125 -1 8 0 84 0 169 0 l154 2 -6 52 c-4 28 -11 56
-17 62 -5 5 -10 19 -10 31 0 11 -7 29 -15 39 -8 11 -15 28 -15 38 0 20 -39 25
-56 8 -13 -13 -89 -28 -199 -40 -44 -5 -111 -14 -150 -19 -91 -13 -832 -14
-911 -1 -34 6 -99 14 -145 20 -108 12 -191 29 -203 41 -21 20 -45 8 -61 -28z
m322 -79 c2 -6 -5 -14 -17 -17 -23 -6 -27 -27 -6 -27 26 0 28 -20 4 -40 -13
-11 -28 -19 -34 -20 -27 0 -33 80 -8 105 18 17 55 17 61 -1z m240 0 c2 -6 -6
-14 -18 -17 -11 -3 -18 -10 -15 -15 3 -6 15 -8 26 -5 14 4 21 -1 26 -22 8 -34
-9 -53 -31 -35 -14 12 -18 11 -25 -1 -8 -11 -14 -9 -36 12 l-26 26 33 37 c31
35 58 44 66 20z m91 -48 c3 -51 1 -57 -15 -54 -14 3 -18 13 -19 53 -1 56 3 68
19 62 7 -2 13 -29 15 -61z m451 43 c21 -17 23 -24 14 -38 -8 -13 -8 -22 -1
-29 18 -18 0 -29 -39 -23 -35 6 -37 8 -36 44 0 34 16 67 32 67 3 -1 17 -10 30
-21z m97 -25 c1 -53 -5 -74 -22 -74 -8 0 -14 3 -15 8 -5 75 -4 98 5 104 20 14
31 1 32 -38z m248 31 c3 -8 1 -16 -4 -16 -6 -1 -15 -2 -22 -3 -6 0 -13 -7 -16
-15 -3 -10 1 -12 17 -8 24 6 45 -21 35 -47 -7 -17 -34 -22 -34 -7 0 6 -12 9
-27 8 -24 -2 -28 2 -31 27 -6 49 66 103 82 61z m-1056 -7 c8 -8 15 -8 25 0 20
17 27 5 27 -50 0 -50 -8 -59 -31 -32 -12 14 -14 14 -26 -3 -12 -15 -15 -16
-23 -3 -5 8 -10 31 -10 51 0 48 14 61 38 37z m349 -8 c6 -23 33 -27 33 -5 0 8
5 15 10 15 12 0 13 -87 1 -94 -15 -10 -40 5 -43 25 -4 28 -22 28 -26 1 -2 -13
-9 -21 -15 -19 -12 4 -14 55 -3 82 8 22 37 18 43 -5z m153 10 c0 -5 -7 -10
-15 -10 -17 0 -20 -21 -4 -37 14 -14 -10 -55 -31 -51 -15 3 -26 67 -16 94 6
16 66 19 66 4z m87 -8 c-13 -14 -14 -21 -5 -30 15 -15 -5 -62 -27 -62 -12 0
-15 12 -15 55 l0 55 32 0 c29 0 30 -1 15 -18z m308 -4 c15 -22 16 -22 27 -4 8
15 12 16 19 5 14 -23 10 -66 -7 -80 -14 -11 -18 -10 -30 6 -8 10 -14 22 -14
27 0 19 -19 6 -22 -14 -4 -33 -22 -28 -26 6 -8 68 21 98 53 54z"></path>
<path d="M2587 2473 c-14 -13 -7 -203 8 -240 8 -19 15 -50 15 -67 0 -17 7 -40
15 -50 8 -11 15 -30 15 -42 0 -13 5 -26 10 -29 6 -3 10 -14 10 -24 0 -20 72
-166 95 -191 8 -9 15 -20 15 -23 0 -11 81 -129 105 -153 11 -12 43 -51 70 -87
28 -37 53 -67 57 -67 4 0 14 17 23 38 29 66 42 96 70 157 15 33 33 75 41 93 8
17 20 47 28 65 8 17 26 59 41 92 15 33 32 74 40 90 7 17 25 57 40 90 15 33 33
74 40 90 7 17 19 46 28 65 9 19 30 66 47 104 17 38 29 75 26 82 -4 12 -77 14
-419 14 -228 0 -417 -3 -420 -7z m131 -99 c2 -11 -2 -34 -9 -50 l-12 -29 -8
44 c-5 24 -6 48 -3 53 9 15 29 3 32 -18z m102 16 c0 -10 -36 -77 -53 -98 -7
-9 -13 -10 -20 -3 -7 7 -4 17 8 31 16 17 17 25 7 40 -19 31 -14 40 23 40 19 0
35 -4 35 -10z m358 -15 c-8 -38 8 -40 40 -4 29 33 61 34 43 1 -6 -10 -5 -22 2
-34 21 -33 -3 -53 -64 -54 -79 0 -99 5 -99 27 0 10 5 19 10 19 6 0 10 5 10 12
0 14 40 58 53 58 5 0 7 -11 5 -25z m-148 -75 c87 -45 61 -159 -69 -299 -25
-26 -29 -36 -20 -47 16 -19 63 -18 80 2 11 14 10 18 -6 31 -20 14 -20 14 -1
29 23 17 40 18 67 4 22 -13 27 -74 6 -94 -36 -36 -76 -46 -184 -45 -59 1 -114
6 -120 11 -7 6 -13 22 -13 37 0 32 49 66 80 56 15 -5 31 6 65 42 24 26 45 54
45 62 0 11 -4 11 -18 -2 -29 -26 -57 -20 -91 18 -26 30 -31 44 -31 89 0 42 5
57 23 73 59 55 122 66 187 33z"></path>
<path d="M2913 2224 c-28 -22 -31 -28 -22 -46 8 -15 17 -19 38 -15 15 3 33 2
41 -3 44 -27 55 38 11 69 -16 12 -31 21 -33 21 -1 0 -18 -12 -35 -26z"></path>
<path d="M3605 2470 c-3 -5 -1 -17 4 -27 27 -51 91 -196 91 -207 0 -8 7 -19
15 -26 8 -7 15 -18 15 -25 0 -8 6 -26 14 -42 22 -43 66 -143 66 -150 0 -7 36
-85 81 -177 16 -33 29 -67 29 -76 0 -10 7 -23 15 -30 8 -7 15 -20 16 -29 0
-25 73 -166 85 -166 11 0 131 133 150 167 6 10 21 30 32 43 28 32 62 92 115
200 65 133 77 163 77 188 0 13 5 28 12 35 14 14 27 99 34 235 l6 97 -425 0
c-261 0 -428 -4 -432 -10z m222 -86 c3 -9 1 -19 -5 -23 -6 -3 -12 -22 -14 -40
-4 -40 -28 -56 -28 -19 0 13 5 29 12 36 8 8 8 15 -1 26 -7 8 -10 20 -6 26 10
15 35 12 42 -6z m91 -40 c3 -51 3 -52 -30 -57 -53 -8 -80 30 -38 53 12 6 20
21 20 36 0 21 4 25 23 22 19 -3 22 -10 25 -54z m350 30 c-2 -20 3 -28 20 -35
16 -6 21 -5 16 2 -7 13 35 61 47 53 14 -8 11 -90 -3 -101 -7 -4 -44 -8 -83 -8
-65 1 -70 2 -70 22 0 21 52 93 68 93 4 0 6 -12 5 -26z m-178 -59 c7 -8 10 -23
7 -34 -6 -24 7 -46 22 -37 6 4 11 18 11 31 0 32 20 42 37 20 15 -22 17 -98 3
-126 -12 -21 -40 -25 -58 -7 -7 7 -12 8 -12 3 -1 -6 -2 -64 -3 -129 -2 -101
-5 -120 -19 -130 -14 -8 -22 -8 -35 2 -10 6 -27 16 -38 21 -11 5 -28 18 -39
30 -16 18 -17 24 -6 51 15 36 37 39 50 5 20 -53 30 -24 30 90 0 96 -3 115 -15
115 -9 0 -15 -9 -15 -22 0 -13 -5 -30 -10 -38 -18 -26 -40 16 -40 74 0 66 10
80 49 74 19 -3 36 1 42 9 15 17 24 16 39 -2z"></path>
<path d="M3502 2428 c-12 -19 -22 -40 -22 -46 0 -6 -11 -32 -25 -58 -14 -26
-25 -55 -25 -64 0 -10 -7 -23 -15 -30 -8 -7 -15 -20 -15 -30 0 -10 -7 -23 -15
-30 -8 -7 -15 -18 -15 -26 0 -7 -11 -39 -24 -71 -13 -32 -27 -65 -30 -73 -3
-8 -10 -22 -15 -30 -11 -20 -56 -119 -99 -220 -6 -14 -24 -56 -42 -95 -80
-179 -90 -202 -90 -213 0 -14 214 -204 277 -247 21 -14 69 -47 107 -74 72 -51
85 -53 116 -17 7 9 18 16 24 16 7 0 23 10 36 23 13 12 45 38 71 57 26 19 97
78 158 130 95 82 110 99 110 126 1 17 -6 37 -14 44 -8 7 -15 18 -15 26 0 7
-11 34 -25 60 -14 26 -25 51 -25 56 0 4 -18 48 -41 96 -22 48 -47 101 -54 117
-16 36 -63 139 -157 345 -16 36 -33 74 -38 85 -4 11 -19 45 -33 75 -13 30 -29
66 -34 79 l-9 24 -22 -35z m141 -663 c34 -37 37 -45 37 -101 0 -37 -6 -67 -15
-80 -30 -39 -6 -108 40 -116 17 -3 20 -11 20 -61 0 -40 -5 -61 -15 -67 -8 -5
-49 -10 -91 -10 -88 0 -89 1 -89 89 0 64 -20 105 -41 84 -10 -10 -9 -16 5 -32
20 -22 30 -95 15 -122 -8 -16 -22 -19 -95 -19 -82 0 -85 1 -94 26 -14 37 -12
87 5 110 21 28 21 207 0 224 -17 14 -20 66 -6 102 9 23 9 23 148 18 l140 -5
36 -40z"></path>
<path d="M3492 1663 c5 -26 38 -29 38 -4 0 15 -6 21 -21 21 -14 0 -19 -5 -17
-17z"></path>
<path d="M1750 6118 c-19 -5 -46 -20 -60 -32 -14 -13 -37 -31 -52 -41 -37 -23
-35 -42 7 -59 19 -8 35 -19 35 -25 0 -5 19 -36 41 -69 26 -38 42 -72 43 -93 1
-27 6 -35 24 -37 13 -2 25 3 28 12 3 9 14 16 25 16 10 0 23 9 29 19 14 27 13
28 -14 35 -33 8 -73 63 -57 79 8 8 22 8 54 -2 23 -8 71 -16 107 -18 56 -4 68
-2 84 16 24 27 13 41 -29 34 -21 -3 -47 0 -67 10 -18 8 -42 17 -53 19 -16 3
-20 11 -18 38 3 52 -14 87 -49 99 -35 12 -31 12 -78 -1z m51 -58 c24 -14 24
-42 0 -64 -29 -26 -60 -17 -77 22 -13 31 -12 33 9 42 30 12 45 12 68 0z"></path>
<path d="M5251 5954 c-36 -41 -41 -53 -41 -94 0 -26 7 -63 15 -82 17 -41 78
-98 105 -98 10 0 22 -4 25 -10 19 -31 132 3 177 53 24 28 28 40 28 98 0 57 -4
71 -29 106 -41 56 -79 73 -167 73 l-72 0 -41 -46z m203 -20 c33 -23 49 -82 34
-129 -15 -48 -64 -94 -98 -94 -61 0 -110 57 -110 130 0 42 4 51 39 82 35 32
44 35 78 30 21 -3 47 -12 57 -19z"></path>
<path d="M1248 5704 c-46 -47 -84 -89 -86 -93 -1 -5 11 -11 28 -15 46 -9 190
-152 190 -189 0 -15 2 -27 3 -27 11 0 187 187 187 198 0 25 -34 73 -50 69 -10
-2 -14 -12 -12 -34 3 -32 -31 -83 -69 -104 -20 -10 -69 24 -69 47 0 23 52 63
82 64 43 0 40 13 -12 55 -29 24 -47 46 -44 54 5 16 -33 61 -52 61 -7 0 -50
-39 -96 -86z m132 -31 c0 -36 -29 -73 -57 -73 -21 0 -53 29 -53 49 0 8 14 29
31 47 27 28 33 30 55 20 18 -8 24 -19 24 -43z"></path>
<path d="M5817 5643 c-4 -3 -7 -25 -7 -48 0 -26 -6 -48 -15 -55 -8 -7 -15 -19
-15 -26 0 -13 -35 -98 -66 -157 -23 -46 -18 -57 24 -57 22 0 53 7 71 16 17 9
38 13 46 10 8 -3 36 1 62 9 27 8 72 15 101 15 61 0 66 12 24 53 -35 33 -45 33
-86 2 -40 -31 -140 -46 -149 -22 -3 8 8 41 24 73 16 33 29 65 29 72 0 6 11 12
25 12 33 0 32 10 -7 65 -30 43 -47 53 -61 38z"></path>
<path d="M922 5302 c-33 -54 -45 -74 -67 -107 -31 -46 -44 -73 -37 -79 3 -3
18 -6 34 -6 27 0 67 -20 96 -47 7 -7 19 -13 26 -13 18 0 76 -63 76 -83 0 -25
39 -21 50 6 5 12 32 54 60 92 58 81 64 119 25 155 -24 23 -25 23 -45 5 -19
-17 -21 -17 -38 -2 -10 10 -23 17 -29 17 -6 0 -16 7 -23 15 -17 20 -30 10 -30
-25 0 -29 -29 -90 -43 -90 -20 0 -67 32 -67 46 0 8 12 31 26 50 19 25 34 34
55 34 16 0 29 4 29 8 0 11 -54 62 -66 62 -5 0 -19 -17 -32 -38z m236 -130 c2
-13 -2 -30 -9 -39 -7 -8 -18 -24 -24 -36 -19 -37 -39 -42 -74 -18 -39 28 -39
40 2 78 49 47 100 54 105 15z"></path>
<path d="M6220 5081 c0 -19 -47 -61 -68 -61 -5 0 -15 -7 -22 -15 -7 -8 -21
-15 -31 -15 -11 0 -19 -4 -19 -9 0 -11 -57 -25 -87 -22 -34 3 -29 -27 14 -106
21 -37 45 -81 53 -98 16 -31 43 -41 85 -31 17 4 22 11 18 26 -3 11 -13 20 -23
20 -23 0 -53 28 -74 70 -17 35 -17 35 9 58 32 27 47 28 71 1 13 -14 18 -33 16
-65 -1 -24 3 -44 8 -44 12 0 63 23 70 31 3 3 24 9 48 12 24 3 52 13 62 22 17
16 17 19 -17 83 -20 37 -45 85 -56 107 -29 56 -57 73 -57 36z m64 -145 l19
-36 -22 -24 c-32 -34 -66 -18 -92 43 -12 29 2 48 39 53 35 5 34 6 56 -36z"></path>
<path d="M653 4828 c-5 -7 -15 -30 -22 -51 -16 -48 -2 -70 27 -44 20 18 62 23
62 7 0 -5 12 -13 28 -16 29 -7 52 -22 52 -34 0 -6 -82 -49 -230 -120 -16 -7
-60 -67 -60 -81 0 -4 24 -7 54 -6 33 1 68 -6 88 -15 18 -9 52 -25 76 -35 27
-12 44 -26 48 -41 11 -42 43 -23 65 37 10 30 16 58 13 62 -8 14 -30 10 -45 -7
-14 -17 -28 -15 -94 9 -41 16 -54 43 -25 57 21 10 52 26 116 60 30 17 63 30
73 30 10 0 24 7 31 15 7 8 19 15 27 15 8 0 13 6 11 13 -5 12 -21 21 -88 50
-106 46 -169 79 -174 92 -7 18 -20 19 -33 3z"></path>
<path d="M6455 4528 c-7 -15 -22 -25 -45 -29 -19 -3 -46 -11 -60 -19 -13 -7
-55 -13 -92 -14 -75 0 -83 -10 -54 -64 8 -15 17 -35 20 -44 8 -25 25 -22 38 7
6 13 18 27 27 29 9 2 26 7 39 11 33 10 28 -14 -18 -87 -34 -54 -40 -71 -40
-120 0 -32 5 -60 12 -64 14 -9 38 23 38 53 0 32 69 126 84 114 6 -5 28 -12 49
-16 32 -6 42 -4 63 16 21 19 24 31 24 90 0 47 -4 70 -15 79 -8 7 -15 21 -15
30 0 51 -37 69 -55 28z m38 -99 c7 -26 -5 -60 -27 -78 -14 -12 -20 -11 -41 9
-32 30 -31 44 3 69 35 26 58 26 65 0z"></path>
<path d="M434 4159 c-4 -7 -9 -43 -12 -80 -5 -70 3 -84 28 -54 16 20 135 20
170 0 14 -8 35 -14 46 -15 15 0 24 -8 28 -26 5 -17 12 -24 24 -22 13 2 19 19
25 66 5 35 6 70 3 79 -6 14 -8 14 -24 -1 -23 -20 -107 -21 -142 -1 -14 8 -42
14 -62 15 -32 0 -39 4 -44 25 -6 26 -28 33 -40 14z"></path>
<path d="M6610 3895 c-22 -23 -30 -25 -118 -25 -74 0 -99 4 -114 16 -14 14
-20 14 -33 4 -15 -13 -21 -83 -9 -114 8 -20 33 -21 41 -1 9 25 59 45 113 45
57 0 61 -8 27 -56 -50 -71 -112 -151 -140 -181 -19 -21 -27 -38 -23 -48 7 -18
32 -17 111 4 62 16 145 14 166 -5 10 -9 25 -14 34 -11 20 8 21 90 0 107 -16
14 -35 6 -35 -16 0 -9 -11 -14 -32 -14 -18 0 -50 -3 -70 -6 -34 -6 -38 -4 -38
15 0 11 4 21 9 21 4 0 24 24 44 53 20 28 52 70 71 92 37 43 39 50 37 108 -1
44 -9 46 -41 12z"></path>
<path d="M517 3703 c-14 -13 -7 -110 8 -123 12 -10 16 -9 20 4 3 9 7 23 10 32
3 11 15 14 42 12 l38 -3 3 -52 c3 -60 -13 -92 -63 -123 -45 -28 -71 -25 -116
11 -38 30 -39 33 -39 91 0 45 5 66 20 85 29 37 25 45 -22 41 l-43 -3 -3 -94
c-3 -92 -2 -96 29 -140 32 -48 86 -81 131 -81 43 0 111 43 135 86 19 32 23 54
23 129 0 123 -9 135 -99 135 -37 0 -71 -3 -74 -7z"></path>
<path d="M6337 3233 c-10 -9 -9 -143 1 -143 4 0 15 7 25 15 15 10 41 12 110 8
97 -6 127 -15 127 -37 0 -16 23 -27 37 -18 12 8 25 150 14 156 -4 3 -18 -6
-30 -20 -19 -22 -28 -25 -61 -19 -21 4 -69 10 -107 13 -60 6 -68 9 -71 30 -3
21 -30 30 -45 15z"></path>
<path d="M635 3067 c-29 -17 -158 -32 -215 -25 -33 4 -39 -30 -14 -83 19 -43
33 -49 41 -19 10 38 130 80 147 52 2 -4 -9 -30 -25 -57 -16 -28 -33 -59 -38
-71 -5 -11 -23 -42 -40 -69 -26 -40 -30 -56 -25 -85 10 -52 12 -53 57 -16 33
27 54 35 97 39 30 3 72 9 93 12 24 5 37 3 37 -4 0 -6 9 -11 20 -11 21 0 28 28
11 45 -5 6 -11 26 -13 45 -2 27 -7 35 -23 35 -12 0 -21 -9 -25 -23 -6 -26 -62
-52 -112 -52 -36 0 -37 26 -5 78 12 20 28 48 35 62 14 30 29 54 60 98 13 18
21 40 18 47 -6 18 -53 19 -81 2z"></path>
<path d="M6276 2818 c-2 -7 -8 -29 -15 -49 -6 -19 -11 -43 -11 -52 0 -21 38
-23 46 -2 8 20 74 20 100 0 10 -8 27 -15 36 -15 38 0 25 -21 -38 -57 -36 -21
-78 -46 -92 -55 -15 -9 -48 -27 -74 -40 -27 -13 -48 -28 -48 -33 0 -19 23 -35
50 -35 14 0 34 -7 44 -15 11 -8 30 -15 42 -15 13 0 26 -4 29 -10 3 -5 16 -10
28 -10 11 0 36 -14 54 -32 25 -24 36 -29 45 -20 12 12 38 79 38 100 0 15 -36
16 -46 1 -4 -7 -23 -8 -52 -4 -87 13 -108 48 -44 78 20 10 51 26 67 37 17 11
40 24 52 29 11 5 24 15 28 20 3 6 15 11 25 11 20 0 50 49 50 82 0 23 -27 24
-51 2 -17 -15 -20 -15 -43 0 -14 9 -36 16 -49 16 -14 0 -30 7 -37 15 -7 8 -25
15 -41 15 -22 0 -32 7 -41 25 -12 26 -46 34 -52 13z"></path>
<path d="M813 2470 c-31 -13 -29 -36 5 -43 29 -6 72 -69 72 -106 0 -25 -78
-70 -84 -49 -1 7 -8 28 -14 47 -8 25 -8 38 -1 47 31 37 -36 46 -77 10 l-28
-23 23 -8 c24 -7 68 -93 54 -105 -19 -17 -60 -19 -82 -3 -21 14 -23 21 -17 69
6 51 5 54 -19 60 -29 7 -55 -10 -55 -36 0 -10 12 -42 26 -72 32 -64 51 -107
58 -130 7 -23 37 -23 42 0 5 16 127 82 153 82 6 0 20 6 31 12 16 10 24 10 39
1 27 -17 48 8 34 40 -6 12 -23 49 -37 82 -64 141 -70 147 -123 125z"></path>
<path d="M6040 2160 c-65 -51 -113 -124 -125 -193 -7 -36 -6 -38 31 -53 21 -9
45 -25 52 -35 28 -41 49 -22 100 94 5 11 -36 8 -43 -3 -10 -17 -51 -11 -69 9
-17 18 -17 21 0 48 40 64 54 73 115 73 53 0 59 -3 88 -35 25 -28 31 -45 31
-79 0 -38 -5 -48 -40 -80 -22 -20 -49 -36 -60 -36 -24 0 -26 -13 -4 -34 55
-56 154 60 154 180 0 66 -21 105 -77 142 -44 29 -117 30 -153 2z"></path>
<path d="M1702 1257 c-29 -31 -28 -37 11 -36 32 1 59 -10 107 -43 l24 -18 -19
-32 c-41 -70 -101 -137 -129 -145 -44 -13 -42 -28 5 -62 56 -41 79 -41 79 0 0
23 13 48 43 85 23 29 50 65 60 79 10 14 26 25 37 25 37 0 32 22 -16 65 -27 24
-54 44 -59 45 -6 0 -26 13 -45 30 -42 35 -69 38 -98 7z"></path>
<path d="M5050 1123 c-59 -39 -90 -77 -90 -110 0 -21 6 -36 19 -42 23 -13 31
-5 31 28 0 31 6 40 44 69 35 27 81 28 119 4 45 -30 56 -53 57 -113 0 -47 -4
-59 -25 -79 -21 -19 -35 -23 -80 -22 -51 1 -55 0 -55 -21 0 -90 142 -40 216
75 16 25 24 52 24 82 0 38 -6 51 -46 95 l-46 51 -72 0 c-50 0 -79 -5 -96 -17z"></path>
<path d="M2170 981 c0 -10 6 -24 14 -30 13 -11 9 -24 -25 -87 -21 -41 -39 -81
-39 -89 0 -8 -12 -17 -27 -21 -47 -10 -53 -13 -53 -28 0 -14 110 -76 136 -76
16 0 19 36 4 45 -17 10 -11 39 16 91 54 102 64 114 95 114 22 0 29 5 29 19 0
10 -8 21 -17 25 -10 3 -38 17 -62 31 -53 30 -71 31 -71 6z"></path>
<path d="M4547 870 c-27 -9 -67 -36 -93 -61 -43 -43 -44 -44 -44 -110 l0 -67
52 -46 c51 -45 54 -46 120 -46 37 0 70 5 73 11 4 5 18 14 31 19 13 5 35 28 50
52 52 81 34 190 -37 225 -49 25 -92 43 -98 42 -3 -1 -28 -9 -54 -19z m108 -76
c29 -19 55 -67 55 -101 0 -48 -58 -103 -110 -103 -39 0 -96 45 -118 93 -19 43
-15 71 16 99 40 39 109 44 157 12z"></path>
<path d="M2545 784 c-27 -42 4 -77 35 -39 17 21 69 19 103 -4 37 -24 67 -82
60 -112 -14 -56 -72 -118 -110 -119 -31 0 -87 35 -103 65 -17 31 -24 31 -45
-1 -28 -43 -12 -57 111 -100 49 -16 54 -16 95 0 50 20 93 57 114 100 16 32 20
96 6 96 -5 0 -12 11 -15 24 -7 29 -64 86 -87 86 -9 0 -22 7 -29 15 -8 10 -30
15 -65 15 -46 0 -55 -3 -70 -26z"></path>
<path d="M3914 701 c-82 -14 -130 -80 -113 -156 11 -48 10 -145 -1 -145 -14 0
-12 -37 3 -43 6 -2 21 -1 32 4 11 4 32 8 48 8 34 1 35 23 2 45 -24 16 -25 21
-25 114 0 63 4 102 12 110 16 16 133 16 145 0 6 -7 13 -35 17 -63 3 -27 9 -69
12 -93 6 -38 4 -44 -15 -49 -11 -3 -21 -12 -21 -19 0 -10 15 -14 59 -14 96 0
113 16 66 60 -22 21 -25 32 -25 90 0 58 -4 72 -29 107 -22 31 -38 41 -67 46
-43 7 -41 7 -100 -2z"></path>
<path d="M3136 688 c-2 -7 -7 -51 -10 -98 -5 -81 -17 -129 -44 -177 -15 -28
-4 -36 59 -41 53 -4 72 12 41 33 -11 8 -22 22 -24 32 -5 19 23 114 34 116 4 1
44 -41 90 -93 104 -118 151 -143 196 -104 2 1 -6 12 -17 23 -19 19 -20 29 -14
123 4 85 8 105 24 117 41 30 18 51 -56 51 -52 0 -67 -16 -37 -41 19 -15 22
-28 22 -88 0 -60 -3 -71 -17 -71 -19 0 -140 123 -181 184 -28 42 -59 58 -66
34z"></path>
</g>
</svg>